<svg width="24" height="24" viewBox="0 0 24 24" fill="none" xmlns="http://www.w3.org/2000/svg">
<path opacity="0.2" d="M16.5 3H7.5C6.30652 3 5.16194 3.4741 4.31802 4.31802C3.4741 5.16194 3 6.30652 3 7.5V16.5C3 17.6935 3.4741 18.8381 4.31802 19.682C5.16194 20.5258 6.30652 21 7.5 21H16.5C17.6935 21 18.8381 20.5258 19.682 19.682C20.5258 18.8381 21 17.6935 21 16.5V7.5C21 6.30652 20.5258 5.16194 19.682 4.31802C18.8381 3.4741 17.6935 3 16.5 3ZM12 15.75C11.2583 15.75 10.5333 15.5301 9.91662 15.118C9.29992 14.706 8.81928 14.1203 8.53546 13.4351C8.25162 12.7498 8.17736 11.9958 8.32206 11.2684C8.46674 10.541 8.8239 9.8728 9.34834 9.34834C9.8728 8.8239 10.541 8.46674 11.2684 8.32206C11.9958 8.17736 12.7498 8.25162 13.4351 8.53546C14.1203 8.81928 14.706 9.29992 15.118 9.91662C15.5301 10.5333 15.75 11.2583 15.75 12C15.75 12.9946 15.3549 13.9484 14.6517 14.6517C13.9484 15.3549 12.9946 15.75 12 15.75Z" fill="url(#paint0_radial_95_73)"/>
<path d="M16.5 2.25H7.5C6.10808 2.25148 4.77358 2.8051 3.78934 3.78934C2.8051 4.77358 2.25148 6.10808 2.25 7.5V16.5C2.25148 17.8919 2.8051 19.2264 3.78934 20.2106C4.77358 21.195 6.10808 21.7486 7.5 21.75H16.5C17.8919 21.7486 19.2264 21.195 20.2106 20.2106C21.195 19.2264 21.7486 17.8919 21.75 16.5V7.5C21.7486 6.10808 21.195 4.77358 20.2106 3.78934C19.2264 2.8051 17.8919 2.25148 16.5 2.25ZM20.25 16.5C20.25 17.4946 19.8549 18.4484 19.1517 19.1517C18.4484 19.8549 17.4946 20.25 16.5 20.25H7.5C6.50544 20.25 5.55162 19.8549 4.84834 19.1517C4.14508 18.4484 3.75 17.4946 3.75 16.5V7.5C3.75 6.50544 4.14508 5.55162 4.84834 4.84834C5.55162 4.14508 6.50544 3.75 7.5 3.75H16.5C17.4946 3.75 18.4484 4.14508 19.1517 4.84834C19.8549 5.55162 20.25 6.50544 20.25 7.5V16.5ZM12 7.5C11.11 7.5 10.24 7.76392 9.49994 8.25838C8.75992 8.75286 8.18314 9.45566 7.84254 10.2779C7.50194 11.1002 7.41284 12.005 7.58646 12.8779C7.7601 13.7508 8.18868 14.5526 8.81802 15.182C9.44736 15.8113 10.2492 16.2399 11.1221 16.4135C11.995 16.5872 12.8998 16.4981 13.7221 16.1575C14.5443 15.8169 15.2471 15.2401 15.7416 14.5001C16.2361 13.76 16.5 12.89 16.5 12C16.4988 10.8069 16.0243 9.66304 15.1806 8.8194C14.337 7.97574 13.1931 7.50124 12 7.5ZM12 15C11.4067 15 10.8266 14.8241 10.3333 14.4944C9.83994 14.1648 9.45542 13.6962 9.22836 13.148C9.0013 12.5999 8.94188 11.9967 9.05764 11.4147C9.1734 10.8328 9.45912 10.2982 9.87868 9.87868C10.2982 9.45912 10.8328 9.1734 11.4147 9.05764C11.9967 8.94188 12.5999 9.0013 13.148 9.22836C13.6962 9.45542 14.1648 9.83994 14.4944 10.3333C14.8241 10.8266 15 11.4067 15 12C15 12.7956 14.6839 13.5587 14.1213 14.1213C13.5587 14.6839 12.7956 15 12 15ZM18 7.125C18 7.3475 17.934 7.56502 17.8104 7.75002C17.6868 7.93502 17.5111 8.07922 17.3055 8.16436C17.1 8.24952 16.8738 8.2718 16.6555 8.22838C16.4373 8.18498 16.2368 8.07782 16.0795 7.9205C15.9222 7.76316 15.815 7.5627 15.7716 7.34448C15.7282 7.12624 15.7505 6.90004 15.8356 6.69448C15.9208 6.48892 16.065 6.31322 16.25 6.1896C16.435 6.06598 16.6525 6 16.875 6C17.1734 6 17.4595 6.11852 17.6705 6.3295C17.8815 6.54048 18 6.82664 18 7.125Z" fill="url(#paint1_radial_95_73)"/>
<defs>
<radialGradient id="paint0_radial_95_73" cx="0" cy="0" r="1" gradientUnits="userSpaceOnUse" gradientTransform="translate(12 12) rotate(90) scale(9)">
<stop stop-color="#794CFF"/>
<stop offset="1" stop-color="#5F2CF7"/>
</radialGradient>
<radialGradient id="paint1_radial_95_73" cx="0" cy="0" r="1" gradientUnits="userSpaceOnUse" gradientTransform="translate(12 12) rotate(90) scale(9.75)">
<stop stop-color="#794CFF"/>
<stop offset="1" stop-color="#5F2CF7"/>
</radialGradient>
</defs>
</svg>
